HIERARCHY
ROOT Hips
{
  OFFSET -213.699 104.721 0.752556
  CHANNELS 6 Xposition Yposition Zposition Zrotation Xrotation Yrotation
  JOINT RightUpLeg
  {
    OFFSET -8.9458 -8.66707 0.101652
    CHANNELS 3 Zrotation Xrotation Yrotation
    JOINT RightLeg
    {
      OFFSET 0 -44.4227 1.3727
      CHANNELS 3 Zrotation Xrotation Yrotation
      JOINT RightFoot
      {
        OFFSET 0.253549 -42.0924 -1.46059
        CHANNELS 3 Zrotation Xrotation Yrotation
        JOINT RightToes
        {
          OFFSET 0.04 -4.41509 8.4991
          CHANNELS 3 Zrotation Xrotation Yrotation
          End Site
          {
            OFFSET -0.08 -0.137448 9.77979
          }
        }
      }
    }
  }
  JOINT Spine
  {
    OFFSET 0 11.8905 0
    CHANNELS 3 Zrotation Xrotation Yrotation
    JOINT Spine1
    {
      OFFSET 0 25.6574 0.127663
      CHANNELS 3 Zrotation Xrotation Yrotation
      JOINT HEad
      {
        OFFSET 0 8.73416 0.011341
        CHANNELS 3 Zrotation Xrotation Yrotation
        End Site
        {
          OFFSET -0.29 12.7742 2.51395
        }
      }
      JOINT LeftShoulder1
      {
        OFFSET 8.99 -0.362252 -0.22
        CHANNELS 3 Zrotation Xrotation Yrotation
        JOINT LeftArm
        {
          OFFSET 10.2827 -0.00337999 0.322123
          CHANNELS 3 Zrotation Xrotation Yrotation
          JOINT LeftForeArm
          {
            OFFSET 26.2597 0.099144 -1.42434
            CHANNELS 3 Zrotation Xrotation Yrotation
            JOINT LeftHand
            {
              OFFSET 22.0902 0.085362 1.02216
              CHANNELS 3 Zrotation Xrotation Yrotation
              End Site
              {
                OFFSET 13.419 -0.6 1.50291
              }
            }
          }
        }
      }
      JOINT RightShoulder
      {
        OFFSET -8.99 -0.362252 -0.22
        CHANNELS 3 Zrotation Xrotation Yrotation
        JOINT RightArm
        {
          OFFSET -10.2827 -0.00338 0.322123
          CHANNELS 3 Zrotation Xrotation Yrotation
          JOINT RightForeArm
          {
            OFFSET -26.364 0.099144 -1.42434
            CHANNELS 3 Zrotation Xrotation Yrotation
            JOINT RightHand
            {
              OFFSET -22.0324 0.085362 1.02216
              CHANNELS 3 Zrotation Xrotation Yrotation
              End Site
              {
                OFFSET -13.3284 -0.6 1.50291
              }
            }
          }
        }
      }
    }
  }
  JOINT LeftUpLeg
  {
    OFFSET 8.9458 -8.66707 0.101652
    CHANNELS 3 Zrotation Xrotation Yrotation
    JOINT LeftLeg
    {
      OFFSET 0 -44.4227 1.3727
      CHANNELS 3 Zrotation Xrotation Yrotation
      JOINT LeftFoot
      {
        OFFSET -0.253549 -42.0924 -1.46059
        CHANNELS 3 Zrotation Xrotation Yrotation
        JOINT LeftToes
        {
          OFFSET -0.04 -4.41509 8.4991
          CHANNELS 3 Zrotation Xrotation Yrotation
          End Site
          {
            OFFSET 0.08 -0.047448 9.77979
          }
        }
      }
    }
  }
}
MOTION
Frames:	15
Frame Time:	0.0333333
-216.958 104.809 6.88687 -0.707677 -0.0570123 91.1744 2.81205 1.37178 -0.246563 -0.199193 6.81853 -14.774 -3.83041 -4.8098 -0.0589013 0.0462048 0.000530889 0.662642 -2.28407 1.12199 -0.723533 1.72353 6.01022 -1.08178 -1.61486 -6.98468 -4.86668 -12.4608 -0.706739 7.11847 -41.692 -72.6185 -41.8699 1.57446 49.6655 5.34708 2.47834 9.73486 -5.98112 13.1309 -0.123443 -5.19321 8.73234 -44.8484 -1.2986 -3.92266 13.0988 9.32307 -2.10066 9.80816 4.00696 -1.91491 0.0317904 0.156186 1.81404 7.99307 6.33887 3.18569 -6.68115 -0.00537584 -1.32447e-009 8.75315e-006 -1.48323e-008 
-216.969 104.809 6.91692 -0.719802 -0.0547434 91.1589 2.82531 1.3403 -0.228306 -0.202527 6.84578 -14.7621 -3.80606 -4.82098 -0.0589023 0.0462048 0.000530889 0.662642 -2.31094 1.0674 -0.696702 1.77523 6.03278 -1.06505 -1.68472 -6.80813 -4.91448 -12.5758 -0.708084 7.10606 -42.1314 -72.6824 -42.3785 1.7039 49.8468 5.29477 2.36839 9.7441 -6.10622 13.0443 -0.132157 -5.24324 8.78907 -44.8429 -1.24912 -3.88363 13.0983 9.43766 -2.11283 9.80865 3.96445 -1.88437 -0.0114305 0.19004 1.78819 8.04349 6.32578 3.18568 -6.70438 -0.00537609 -1.32447e-009 8.75315e-006 -1.48323e-008 
-216.989 104.809 6.97301 -0.6856 -0.0310697 91.1908 2.78191 1.38633 -0.318741 -0.112173 6.81709 -14.684 -3.80921 -4.84297 -0.0590811 0.0462048 0.000530889 0.662642 -2.385 0.896928 -0.717207 1.86494 6.25428 -1.10446 -1.82985 -6.49039 -4.82195 -12.682 -0.73017 7.2003 -43.3349 -72.6769 -43.6128 1.91761 50.1059 5.20702 2.38135 9.74281 -6.11086 12.8539 -0.109969 -5.14653 8.93796 -44.9307 -1.21109 -3.96046 13.3022 9.54361 -2.00721 9.80731 4.07835 -1.84686 -0.0102189 0.240905 1.74505 8.08633 6.24103 3.18568 -6.72002 -0.00537626 -1.32447e-009 8.75315e-006 -1.48323e-008 
-217.003 104.807 7.02762 -0.568779 0.00342307 91.2415 2.70052 1.53996 -0.49381 0.0373186 6.76201 -14.5539 -3.8782 -4.88013 -0.0597479 0.0462048 0.000530889 0.662642 -2.44117 0.711661 -0.802426 1.86752 6.61058 -1.19169 -1.97441 -6.15135 -4.57653 -12.5984 -0.764519 7.38918 -44.7426 -72.5475 -44.9037 2.07937 50.2699 5.13953 2.59392 9.72507 -5.87148 12.7362 -0.0480953 -4.84352 9.05308 -45.0562 -1.25315 -4.12427 13.6313 9.53139 -1.96579 9.80364 4.21812 -1.81846 0.0958408 0.298015 1.70204 8.09957 6.1267 3.18484 -6.72406 -0.00537631 -1.32447e-009 8.75315e-006 -1.48323e-008 
-217.018 104.802 7.06986 -0.43162 0.0338282 91.2171 2.64676 1.66645 -0.612603 0.126505 6.79948 -14.4204 -3.96691 -4.94775 -0.060503 0.0462048 0.000530889 0.662642 -2.39696 0.631921 -0.861875 1.69512 6.86782 -1.21456 -2.11402 -5.85815 -4.47741 -12.3752 -0.77519 7.48388 -45.5426 -72.4415 -45.4868 2.16311 50.2609 5.1021 2.74059 9.71415 -5.64521 12.8319 -0.00680201 -4.62984 9.11325 -45.1212 -1.19196 -4.20148 13.8398 9.46787 -2.049 9.79791 4.20344 -1.80092 0.225516 0.356225 1.66397 8.12073 6.09552 3.17763 -6.73528 -0.00537643 -1.32447e-009 8.75315e-006 -1.48323e-008 
-217.049 104.795 7.10449 -0.365459 0.0730609 91.1352 2.61443 1.64987 -0.64531 0.136632 6.94377 -14.3209 -4.02073 -5.03713 -0.0613098 0.0462048 0.000530889 0.662642 -2.30963 0.646696 -0.850752 1.48313 6.9175 -1.15515 -2.28016 -5.63298 -4.66283 -12.251 -0.756366 7.41009 -45.5205 -72.4402 -45.3164 2.18688 50.0973 5.08737 2.68221 9.72002 -5.62776 13.0336 -0.0355198 -4.76235 9.29514 -45.1402 -0.796868 -4.15138 13.951 9.44535 -2.02172 9.80054 4.16013 -1.80851 0.271722 0.386304 1.63329 8.14472 6.15294 3.15979 -6.73896 -0.00537647 -1.32447e-009 8.75315e-006 -1.48323e-008 
-217.097 104.792 7.13786 -0.384936 0.124885 91.1078 2.57005 1.53126 -0.667034 0.142336 7.08553 -14.2835 -4.04664 -5.10618 -0.0621283 0.0462048 0.000530889 0.662642 -2.30952 0.6816 -0.831218 1.44783 6.80351 -1.1244 -2.4236 -5.33909 -4.88853 -12.3652 -0.741374 7.31233 -45.1096 -72.4514 -44.9329 2.13827 49.903 5.104 2.59714 9.72731 -5.68207 13.1162 -0.0960637 -5.05863 9.62933 -45.1607 -0.273316 -4.09095 14.1452 9.4625 -1.7994 9.81822 4.25891 -1.83585 0.218087 0.375428 1.61231 8.15244 6.18295 3.14422 -6.71608 -0.00537622 -1.32447e-009 8.75315e-006 -1.48323e-008 
-217.145 104.791 7.16934 -0.417823 0.161705 91.1532 2.53792 1.43556 -0.697442 0.166969 7.15215 -14.3033 -4.07503 -5.13049 -0.0629197 0.0462048 0.000530889 0.662642 -2.37712 0.745734 -0.847519 1.55209 6.57163 -1.16094 -2.43928 -4.76892 -4.92666 -12.556 -0.742943 7.28677 -44.7199 -72.4134 -44.624 2.03062 49.7965 5.14893 2.66602 9.72195 -5.60148 13.0811 -0.110153 -5.13083 9.79482 -45.1613 -0.153433 -4.1022 14.3709 9.45086 -1.59477 9.83431 4.42606 -1.84817 0.137307 0.355461 1.60225 8.17404 6.13978 3.13499 -6.69198 -0.00537595 -1.32447e-009 8.75315e-006 -1.48323e-008 
-217.178 104.787 7.19653 -0.393797 0.167969 91.1726 2.54788 1.42581 -0.700379 0.169698 7.18439 -14.3162 -4.099 -5.13921 -0.0636506 0.0462048 0.000530889 0.662642 -2.38177 0.888433 -0.855048 1.56641 6.28412 -1.17033 -2.30904 -3.98903 -4.85805 -12.602 -0.735586 7.24136 -44.3922 -72.4069 -44.2479 1.95298 49.8214 5.18391 2.83466 9.70879 -5.42313 13.1722 -0.0764955 -4.95799 9.58615 -45.1106 -0.469746 -4.1331 14.4019 9.35041 -1.55019 9.83776 4.49558 -1.83611 0.111125 0.352939 1.60281 8.23476 6.11216 3.12188 -6.70135 -0.00537606 -1.32447e-009 8.75315e-006 -1.48323e-008 
-217.2 104.782 7.21932 -0.3174 0.173489 91.1271 2.56361 1.46638 -0.693471 0.150961 7.24292 -14.2725 -4.09954 -5.16844 -0.0642884 0.0462048 0.000530889 0.662642 -2.32664 1.04757 -0.830186 1.45791 6.10056 -1.12102 -2.11 -3.33823 -4.78911 -12.5909 -0.71633 7.1457 -44.1582 -72.475 -43.9059 1.95852 50.04 5.18715 2.99133 9.6961 -5.31133 13.5048 -0.0686294 -4.89743 9.38353 -45.0494 -0.506782 -4.09917 14.2009 9.14408 -1.63111 9.83145 4.39475 -1.8324 0.155764 0.355109 1.61022 8.29366 6.15422 3.10536 -6.72799 -0.00537635 -1.32447e-009 8.75315e-006 -1.48323e-008 
-217.226 104.779 7.23941 -0.252901 0.19127 91.0865 2.55546 1.4811 -0.70838 0.149152 7.32361 -14.2206 -4.08997 -5.203 -0.0647955 0.0462048 0.000530889 0.662642 -2.3384 1.07986 -0.831529 1.42662 6.12878 -1.11502 -1.8963 -2.84687 -4.60678 -12.8256 -0.727191 7.16089 -44.2937 -72.5047 -44.1083 1.97896 50.5262 5.19091 3.14918 9.68192 -5.2914 13.9046 -0.116508 -5.10271 9.71762 -45.0383 0.234303 -4.01169 13.9712 8.87331 -1.84213 9.8155 4.14802 -1.84348 0.195177 0.356298 1.61578 8.32535 6.20142 3.09107 -6.73684 -0.00537645 -1.32447e-009 8.75315e-006 -1.48323e-008 
-217.267 104.778 7.2605 -0.240807 0.190667 91.0695 2.56969 1.43341 -0.698773 0.150271 7.39097 -14.2226 -4.0934 -5.20716 -0.065132 0.0462048 0.000530889 0.662642 -2.41664 0.956487 -0.881479 1.527 6.25122 -1.18679 -1.67201 -2.01439 -4.23549 -13.3663 -0.786832 7.36508 -45.021 -72.3721 -45.0326 1.94481 51.1775 5.22385 3.34792 9.66424 -5.26172 14.2254 -0.164243 -5.30664 10.539 -45.0795 1.31833 -3.97227 13.9112 8.63085 -2.07291 9.79822 3.9448 -1.82625 0.15177 0.366504 1.6104 8.37688 6.21499 3.06215 -6.73701 -0.00537645 -1.32447e-009 8.75315e-006 -1.48323e-008 
-217.316 104.777 7.28604 -0.241747 0.15685 90.9937 2.64211 1.37493 -0.618669 0.107904 7.43066 -14.2294 -4.11132 -5.18658 -0.0652623 0.0462048 0.000530889 0.662642 -2.42498 0.8102 -0.906525 1.5749 6.28128 -1.22204 -1.44892 -0.493852 -3.84222 -13.9711 -0.858084 7.60464 -46.3353 -72.0889 -46.3266 1.91964 51.8387 5.25375 3.55114 9.64692 -5.20063 14.592 -0.16682 -5.29079 11.3891 -45.1474 2.1028 -4.03838 14.1809 8.48477 -1.96467 9.80619 4.06937 -1.76517 0.0762733 0.415806 1.59188 8.46469 6.25678 3.00983 -6.75579 -0.00537666 -1.32447e-009 8.75315e-006 -1.48323e-008 
-217.358 104.777 7.31409 -0.190305 0.127526 90.8449 2.72059 1.38891 -0.528027 0.0398053 7.4473 -14.1698 -4.13837 -5.1725 -0.0650935 0.0462048 0.000530889 0.662642 -2.34151 0.734122 -0.869952 1.49199 6.24854 -1.16653 -1.22339 1.38621 -3.57755 -14.5506 -0.918546 7.7853 -48.3848 -71.6993 -48.0136 2.02333 52.6971 5.23162 3.70923 9.63228 -5.20874 15.1742 -0.159498 -5.21388 12.1675 -45.1584 2.6967 -4.09339 14.8797 8.40438 -1.45819 9.84578 4.4871 -1.70587 0.0892957 0.483259 1.56672 8.52585 6.34294 2.98426 -6.7803 -0.00537693 -1.32447e-009 8.75315e-006 -1.48323e-008 
-217.393 104.777 7.33976 -0.0948261 0.128028 90.7506 2.74604 1.46431 -0.508125 0.0121448 7.45513 -14.1041 -4.17099 -5.16909 -0.0638631 0.0462048 0.000530889 0.662642 -2.30606 0.644229 -0.849082 1.43651 6.34073 -1.13252 -0.950769 3.19605 -3.39399 -15.3263 -1.00828 8.05166 -51.5418 -71.1171 -50.7219 2.28492 54.1148 5.15379 3.82857 9.61831 -5.33391 15.9118 -0.184899 -5.27456 13.2123 -44.9437 3.58086 -3.93793 15.8568 8.29531 -1.11746 9.87424 4.74092 -1.68398 0.179177 0.52617 1.54765 8.53956 6.37432 3.03235 -6.77985 -0.00537693 -1.32447e-009 8.75315e-006 -1.48323e-008 
